<svg version="1.1" xmlns="http://www.w3.org/2000/svg" xmlns:xlink="http://www.w3.org/1999/xlink" width="145.73574" height="145.73574" viewBox="0,0,145.73574,145.73574"><defs><radialGradient cx="240" cy="180" r="72.86787" gradientUnits="userSpaceOnUse" id="color-1"><stop offset="0" stop-color="#ffc2b3"/><stop offset="1" stop-color="#ff5d4e"/></radialGradient><linearGradient x1="251.69811" y1="219.64834" x2="278.57223" y2="219.73072" gradientUnits="userSpaceOnUse" id="color-2"><stop offset="0" stop-color="#459cff"/><stop offset="1" stop-color="#006eff"/></linearGradient><linearGradient x1="191.91158" y1="144.10235" x2="249.04403" y2="204.27345" gradientUnits="userSpaceOnUse" id="color-3"><stop offset="0" stop-color="#006eff"/><stop offset="1" stop-color="#3d9bff"/></linearGradient><linearGradient x1="245.05769" y1="207.75535" x2="269.84091" y2="180.80899" gradientUnits="userSpaceOnUse" id="color-4"><stop offset="0" stop-color="#3d9bff"/><stop offset="1" stop-color="#006eff"/></linearGradient><linearGradient x1="235.04776" y1="161.97528" x2="254.75774" y2="182.73355" gradientUnits="userSpaceOnUse" id="color-5"><stop offset="0" stop-color="#006eff"/><stop offset="1" stop-color="#3d9bff"/></linearGradient></defs><g transform="translate(-167.13213,-107.13213)"><g data-paper-data="{&quot;isPaintingLayer&quot;:true}" fill-rule="nonzero" stroke="none" stroke-width="0" stroke-linecap="butt" stroke-linejoin="miter" stroke-miterlimit="10" stroke-dasharray="" stroke-dashoffset="0" style="mix-blend-mode: normal"><path d="M167.13213,180c0,-40.24382 32.62405,-72.86787 72.86787,-72.86787c40.24382,0 72.86787,32.62405 72.86787,72.86787c0,40.24382 -32.62405,72.86787 -72.86787,72.86787c-40.24382,0 -72.86787,-32.62405 -72.86787,-72.86787z" fill="url(#color-1)"/><path d="M229.47464,177.32626v-4.31378h3.9543v4.31378z" fill="#000000"/><g fill="#000000"><path d="M282.43267,217.13107c0.0025,0.09095 0.01557,-0.08823 0.01239,0.0027c-0.22784,6.5065 -5.83391,11.81903 -11.78149,11.94197c-2.45207,-0.02619 -4.03903,-0.0362 -4.07875,-0.03728c-5.68087,-0.15428 -11.02405,-6.06245 -11.01355,-11.94801c3.33987,-0.00814 12.03575,-0.02278 26.8614,0.04062z" data-paper-data="{&quot;index&quot;:null}"/><path d="M217.75288,217.86121v-80.43219l0.01895,-10.85021c0,0 -0.01142,0.01702 0.07177,0.02138c0.1234,0.00106 0.24603,0.0034 0.36787,0.00699c6.95727,0.04596 12.58894,5.81977 12.59569,10.60293c0.00005,0.03604 0.00757,0.21892 0.00757,0.21892l-0.05706,91.26363c0,0 -0.29075,0.02653 -0.47653,0.02525c-5.95868,-0.04051 -12.39001,-5.53402 -12.52774,-10.63709c-0.00524,-0.1601 -0.0005,-0.2196 -0.0005,-0.2196z"/><path d="M255.55164,217.2465v-39.16189h11.49338v39.16189z" data-paper-data="{&quot;index&quot;:null}"/><path d="M230.66433,178.14172c-0.0105,-5.88555 5.33267,-11.79373 11.01355,-11.94801c0.03972,-0.00108 2.40234,-0.0138 7.14627,-0.03323c1.78864,-0.00733 3.95247,0.02214 6.40454,-0.00405c5.94758,0.12294 11.57042,5.20723 11.79827,11.71373c0.00271,0.07731 0.00465,0.15482 0.00583,0.23253c0.0009,0.03043 -0.03416,-0.03201 -0.035,-0.00159c-14.82566,0.0634 -32.99359,0.04876 -36.33345,0.04062z" data-paper-data="{&quot;index&quot;:null}"/></g><path d="M278.57771,213.7541c0.00247,0.09095 0.0156,-0.08823 0.01238,0.0027c-0.22982,6.50643 -5.8375,11.81725 -11.78512,11.93839c-2.45206,-0.02694 -4.03902,-0.03743 -4.07875,-0.03851c-5.68082,-0.15601 -11.02221,-6.0658 -11.00992,-11.95136c3.33987,-0.00712 12.03576,-0.01912 26.86139,0.04878z" data-paper-data="{&quot;index&quot;:null}" fill="url(#color-2)"/><path d="M213.89772,214.46459l0.02443,-80.43219l0.02225,-10.85021c0,0 -0.01143,0.01701 0.07176,0.0214c0.12341,0.00111 0.24603,0.00347 0.36787,0.00709c6.95727,0.04807 12.58717,5.82359 12.59247,10.60676c0.00004,0.03604 0.00751,0.21892 0.00751,0.21892l-0.08479,91.26361c0,0 -0.29076,0.02644 -0.47654,0.02511c-5.95867,-0.04232 -12.38833,-5.53779 -12.52451,-10.64089c-0.00519,-0.1601 -0.00044,-0.21961 -0.00044,-0.21961z" fill="url(#color-3)"/><path d="M251.69666,213.86137l0.0119,-39.16189l11.49338,0.00349l-0.0119,39.16189z" data-paper-data="{&quot;index&quot;:null}" fill="url(#color-4)"/><path d="M226.82124,174.74902c-0.00872,-5.88555 5.33625,-11.79211 11.01718,-11.94467c0.03973,-0.00106 2.40235,-0.01307 7.14627,-0.03106c1.78865,-0.00678 3.95246,0.02334 6.40454,-0.0021c5.94754,0.12475 11.56884,5.21074 11.79472,11.71731c0.00268,0.07731 0.0046,0.15483 0.00576,0.23253c0.00089,0.03043 -0.03415,-0.03202 -0.035,-0.00159c-14.82567,0.0589 -32.99359,0.03873 -36.33347,0.02958z" data-paper-data="{&quot;index&quot;:null}" fill="url(#color-5)"/></g></g></svg>
